<svg xmlns="http://www.w3.org/2000/svg" version="1.1" xmlns:xlink="http://www.w3.org/1999/xlink" xmlns:svgjs="http://svgjs.com/svgjs" width="1440" height="560" preserveAspectRatio="none" viewBox="0 0 1440 560"><g mask="url(&quot;#SvgjsMask1030&quot;)" fill="none"><rect width="1440" height="560" x="0" y="0" fill="rgba(48, 57, 82, 1)"></rect><path d="M720 661.34C837.13 662.4 963.61 688.31 1054.76 614.76 1152.41 535.99 1196.65 405.39 1192.6 280 1188.69 158.18 1123.1 49.17 1033.89-33.89 948.11-113.75 836.72-170.57 720-159.99 610.72-150.1 538.68-56.36 458.27 18.27 372.66 97.73 259.13 163.96 245.97 280 231.93 403.76 294.25 530.65 391.29 608.71 481.18 681.03 604.64 660.29 720 661.34" fill="rgba(119, 139, 235, 1)"></path><path d="M720 526.75C795.79 527.43 877.63 544.2 936.61 496.61 999.8 445.64 1028.42 361.14 1025.8 280 1023.27 201.17 980.83 130.64 923.1 76.9 867.6 25.22 795.53-11.54 720-4.7 649.29 1.7 602.67 62.35 550.64 110.64 495.25 162.06 421.79 204.91 413.28 280 404.19 360.08 444.52 442.18 507.3 492.7 565.47 539.49 645.35 526.07 720 526.75" fill="rgba(99, 205, 218, 1)"></path><path d="M720 392.16C754.45 392.47 791.65 400.09 818.46 378.46 847.18 355.29 860.19 316.88 859 280 857.85 244.17 838.56 212.11 812.32 187.68 787.09 164.19 754.33 147.48 720 150.59 687.86 153.5 666.67 181.07 643.02 203.02 617.84 226.39 584.45 245.87 580.58 280 576.45 316.4 594.78 353.72 623.32 376.68 649.76 397.95 686.07 391.85 720 392.16" fill="rgba(248, 165, 194, 1)"></path></g><defs><mask id="SvgjsMask1030"><rect width="1440" height="560" fill="#ffffff"></rect></mask></defs></svg>